<svg width="336" height="266" viewBox="0 0 336 266" fill="none" xmlns="http://www.w3.org/2000/svg">
<path d="M20.7598 39.6342C20.7598 36.1084 23.6196 33.2502 27.1474 33.2502H288.414C291.942 33.2502 294.802 36.1084 294.802 39.6342V192.891C294.802 197.309 291.22 200.891 286.802 200.891H28.7598C24.3415 200.891 20.7598 197.309 20.7598 192.891V39.6342Z" fill="#93BEFF"/>
<path d="M27.6797 47.7469C27.6797 44.2211 30.5395 41.3629 34.0673 41.3629H282.254C285.781 41.3629 288.641 44.2211 288.641 47.7469V190.057H27.6797V47.7469Z" fill="white"/>
<path d="M68.6899 57.384C68.6899 57.0728 68.9425 56.82 69.2545 56.82H170.13C171.324 56.82 172.291 57.7873 172.291 58.98V127.173C172.291 128.366 171.324 129.333 170.13 129.333H69.2545C68.9425 129.333 68.6899 129.081 68.6899 128.769V57.384Z" stroke="#0066FF"/>
<path opacity="0.2" d="M64.4087 53.998C64.4087 53.4104 64.8853 52.934 65.4733 52.934H166.348C167.818 52.934 169.01 54.125 169.01 55.594V123.787C169.01 125.256 167.818 126.447 166.348 126.447H65.4733C64.8853 126.447 64.4087 125.971 64.4087 125.383V53.998Z" fill="#0066FF"/>
<path d="M76.1731 67.2238C76.1731 66.9612 76.386 66.7484 76.6487 66.7484C76.9114 66.7484 77.1243 66.9612 77.1243 67.2238V112.541C77.1243 112.803 76.9114 113.016 76.6487 113.016C76.386 113.016 76.1731 112.803 76.1731 112.541V67.2238Z" fill="white"/>
<path d="M76.6485 113.016C76.3858 113.016 76.1729 112.803 76.1729 112.541C76.1729 112.278 76.3858 112.065 76.6485 112.065H159.724C159.987 112.065 160.2 112.278 160.2 112.541C160.2 112.803 159.987 113.016 159.724 113.016H76.6485Z" fill="white"/>
<path d="M138.638 78.4741C138.638 77.7741 139.206 77.2065 139.906 77.2065H142.126C142.826 77.2065 143.394 77.7741 143.394 78.4741V108.58C143.394 109.28 142.826 109.847 142.126 109.847H139.906C139.206 109.847 138.638 109.28 138.638 108.58V78.4741Z" fill="#0066FF"/>
<path d="M124.369 84.8114C124.369 84.1113 124.937 83.5437 125.637 83.5437H127.857C128.557 83.5437 129.125 84.1113 129.125 84.8114V108.579C129.125 109.279 128.557 109.847 127.857 109.847H125.637C124.937 109.847 124.369 109.279 124.369 108.579V84.8114Z" fill="white"/>
<path d="M110.102 97.4882C110.102 96.7882 110.669 96.2206 111.37 96.2206H113.589C114.29 96.2206 114.858 96.7882 114.858 97.4882V108.58C114.858 109.28 114.29 109.847 113.589 109.847H111.37C110.669 109.847 110.102 109.28 110.102 108.58V97.4882Z" fill="#0066FF"/>
<path d="M96.4663 82.9099C96.4663 82.2098 97.0342 81.6422 97.7346 81.6422H99.9542C100.655 81.6422 101.223 82.2098 101.223 82.9099V108.579C101.223 109.279 100.655 109.847 99.9542 109.847H97.7346C97.0342 109.847 96.4663 109.279 96.4663 108.579V82.9099Z" fill="white"/>
<path d="M82.1973 92.1002C82.1973 91.4001 82.7651 90.8326 83.4656 90.8326H85.6852C86.3857 90.8326 86.9535 91.4001 86.9535 92.1002V109.213C86.9535 109.913 86.3857 110.481 85.6852 110.481H83.4656C82.7651 110.481 82.1973 109.913 82.1973 109.213V92.1002Z" fill="#0066FF"/>
<path d="M152.907 71.8185C152.907 71.1185 153.475 70.5509 154.176 70.5509H156.395C157.096 70.5509 157.663 71.1185 157.663 71.8185V108.579C157.663 109.279 157.096 109.847 156.395 109.847H154.176C153.475 109.847 152.907 109.279 152.907 108.579V71.8185Z" fill="white"/>
<path d="M156.395 67.6983C156.395 68.3984 155.827 68.9659 155.126 68.9659C154.764 68.9659 154.437 68.8142 154.206 68.5709L142.439 74.2532C142.441 74.2863 142.443 74.3197 142.443 74.3535C142.443 75.0536 141.875 75.6211 141.174 75.6211C140.831 75.6211 140.519 75.4844 140.29 75.2625L128.154 80.788C128.167 80.8597 128.173 80.9334 128.173 81.0087C128.173 81.7088 127.606 82.2763 126.905 82.2763C126.66 82.2763 126.43 82.2066 126.236 82.0858L114.159 93.6074C114.199 93.7314 114.221 93.8637 114.221 94.0012C114.221 94.7013 113.653 95.2688 112.953 95.2688C112.253 95.2688 111.685 94.7013 111.685 94.0012C111.685 93.7955 111.734 93.6014 111.821 93.4296L99.4232 78.2548C99.3569 78.1738 99.2811 78.1049 99.1985 78.0486C99.0418 78.1179 98.8683 78.1564 98.6858 78.1564C98.4648 78.1564 98.257 78.0999 98.0761 78.0006C98.0416 78.02 98.008 78.0416 97.9752 78.0652L85.9672 86.7328C85.9899 86.8278 86.002 86.927 86.002 87.0291C86.002 87.7291 85.4341 88.2967 84.7337 88.2967C84.0332 88.2967 83.4653 87.7291 83.4653 87.0291C83.4653 86.329 84.0332 85.7614 84.7337 85.7614C85.1019 85.7614 85.4336 85.9183 85.6653 86.1689L97.6042 77.5512C97.4858 77.3584 97.4175 77.1316 97.4175 76.8888C97.4175 76.1888 97.9853 75.6212 98.6858 75.6212C99.3863 75.6212 99.9542 76.1888 99.9542 76.8888C99.9542 77.1608 99.8685 77.4128 99.7226 77.6192L112.246 92.9485C112.448 92.8128 112.691 92.7336 112.953 92.7336C113.283 92.7336 113.583 92.8593 113.809 93.0654L113.816 93.058L125.798 81.6275C125.695 81.4445 125.637 81.2334 125.637 81.0087C125.637 80.3086 126.205 79.7411 126.905 79.7411C127.303 79.7411 127.659 79.9245 127.891 80.2113L139.959 74.7169C139.925 74.6018 139.906 74.4798 139.906 74.3535C139.906 73.6534 140.474 73.0859 141.174 73.0859C141.615 73.0859 142.002 73.31 142.23 73.6502L153.898 68.0159C153.872 67.9144 153.858 67.808 153.858 67.6983C153.858 66.9982 154.426 66.4307 155.126 66.4307C155.827 66.4307 156.395 66.9982 156.395 67.6983Z" fill="#0066FF"/>
<path d="M222.769 3.45801H317.785C319.696 3.45801 321.245 5.00621 321.245 6.91601V81.3961C321.245 83.3059 319.696 84.8541 317.785 84.8541H226.229C224.318 84.8541 222.769 83.3059 222.769 81.3961V3.45801Z" fill="#8BB3F0"/>
<path d="M219.575 10.374H318.051V77.9381C318.051 79.8479 316.502 81.3961 314.591 81.3961H223.035C221.124 81.3961 219.575 79.8479 219.575 77.9381V10.374Z" fill="#CCE0FF"/>
<path d="M219.575 3.458C219.575 1.5482 221.124 0 223.035 0H314.591C316.502 0 318.051 1.5482 318.051 3.458V10.374H219.575V3.458Z" fill="#0066FF"/>
<path fill-rule="evenodd" clip-rule="evenodd" d="M298.813 16.5302L302.913 18.1692L300.94 22.4604L299.973 22.0162L301.16 19.4342L293.321 22.5149L281.655 29.163L272.599 32.519L261.755 41.7931L251.568 36.3421L231.364 47.9524L230.834 47.03L251.549 35.1254L261.616 40.5117L272.051 31.5873L281.203 28.1956L292.86 21.5527L300.751 18.4512L298.417 17.5181L298.813 16.5302Z" fill="#0066FF"/>
<path fill-rule="evenodd" clip-rule="evenodd" d="M305.981 26.312H299.434V67.8208H305.981V26.312ZM289.204 31.4237H295.751V67.8207H289.204V31.4237ZM285.521 35.7177H278.974V67.8206H285.521V35.7177ZM268.745 40.8298H275.292V67.8208H268.745V40.8298ZM248.285 45.5327H254.832V67.8207H248.285V45.5327ZM244.602 51.2579H238.055V67.8206H244.602V51.2579ZM234.373 54.7342H227.826V67.8208H234.373V54.7342ZM265.062 47.7819H258.515V67.8206H265.062V47.7819Z" fill="white"/>
<path d="M228.89 5.32001C228.89 6.34837 228.056 7.18201 227.027 7.18201C225.998 7.18201 225.164 6.34837 225.164 5.32001C225.164 4.29165 225.998 3.45801 227.027 3.45801C228.056 3.45801 228.89 4.29165 228.89 5.32001Z" fill="#1E1E2D"/>
<path d="M233.681 5.32001C233.681 6.34837 232.847 7.18201 231.818 7.18201C230.789 7.18201 229.955 6.34837 229.955 5.32001C229.955 4.29165 230.789 3.45801 231.818 3.45801C232.847 3.45801 233.681 4.29165 233.681 5.32001Z" fill="#FF7688"/>
<path d="M238.472 5.32001C238.472 6.34837 237.638 7.18201 236.609 7.18201C235.58 7.18201 234.746 6.34837 234.746 5.32001C234.746 4.29165 235.58 3.45801 236.609 3.45801C237.638 3.45801 238.472 4.29165 238.472 5.32001Z" fill="white"/>
<path d="M196.121 144.506C196.121 145.699 197.089 146.666 198.283 146.666H279.77C280.965 146.666 281.932 145.699 281.932 144.506V97.6221C281.932 96.4294 280.964 95.4621 279.77 95.4621H198.283C197.089 95.4621 196.121 96.4294 196.121 97.6221V144.506Z" stroke="#0066FF"/>
<path d="M193.492 141.846C193.492 143.315 194.684 144.506 196.154 144.506H277.641C279.111 144.506 280.303 143.315 280.303 141.846V94.9623C280.303 93.4932 279.111 92.3023 277.641 92.3023H196.154C194.684 92.3023 193.492 93.4932 193.492 94.9623V141.846Z" fill="#CCE0FF"/>
<path d="M209.576 118.571C209.342 118.81 209.086 118.929 208.808 118.929C208.377 118.929 208.036 118.757 207.787 118.411C207.54 118.063 207.417 117.599 207.417 117.02C207.417 116.646 207.487 116.304 207.627 115.995C207.767 115.684 207.962 115.442 208.212 115.271C208.464 115.099 208.745 115.013 209.054 115.013C209.374 115.013 209.658 115.108 209.908 115.298C210.157 115.487 210.351 115.76 210.489 116.116C210.626 116.469 210.695 116.872 210.695 117.324V117.725C210.695 118.692 210.482 119.448 210.056 119.993C209.632 120.536 209.031 120.813 208.251 120.823H208.138V119.872H208.212C208.643 119.87 208.967 119.758 209.183 119.537C209.401 119.316 209.532 118.994 209.576 118.571ZM209.089 118.064C209.302 118.064 209.47 117.919 209.592 117.628V117.121C209.592 116.75 209.541 116.459 209.44 116.249C209.339 116.036 209.207 115.929 209.046 115.929C208.888 115.929 208.759 116.034 208.66 116.245C208.564 116.452 208.516 116.707 208.516 117.008C208.516 117.336 208.567 117.594 208.668 117.784C208.769 117.971 208.91 118.064 209.089 118.064Z" fill="#0066FF"/>
<path d="M215.572 118.419C215.572 119.203 215.429 119.803 215.143 120.219C214.86 120.635 214.454 120.843 213.927 120.843C213.404 120.843 213 120.641 212.714 120.239C212.431 119.833 212.284 119.254 212.274 118.501V117.429C212.274 116.647 212.415 116.05 212.698 115.637C212.982 115.221 213.389 115.013 213.919 115.013C214.449 115.013 214.856 115.219 215.139 115.629C215.422 116.039 215.567 116.625 215.572 117.386V118.419ZM214.465 117.269C214.465 116.823 214.42 116.488 214.332 116.264C214.244 116.041 214.106 115.929 213.919 115.929C213.568 115.929 213.386 116.338 213.373 117.156V118.571C213.373 119.028 213.417 119.368 213.505 119.592C213.596 119.815 213.737 119.927 213.927 119.927C214.106 119.927 214.238 119.823 214.324 119.615C214.413 119.405 214.459 119.084 214.465 118.653V117.269Z" fill="#0066FF"/>
<path d="M217.119 116.182C217.119 115.837 217.214 115.555 217.403 115.337C217.596 115.119 217.854 115.009 218.179 115.009C218.504 115.009 218.763 115.117 218.955 115.333C219.15 115.546 219.248 115.834 219.248 116.198V116.482C219.248 116.833 219.151 117.115 218.959 117.328C218.767 117.541 218.509 117.647 218.187 117.647C217.867 117.647 217.609 117.541 217.411 117.328C217.216 117.115 217.119 116.825 217.119 116.459V116.182ZM217.836 116.482C217.836 116.638 217.869 116.763 217.934 116.856C218.001 116.947 218.086 116.993 218.187 116.993C218.291 116.993 218.373 116.945 218.433 116.849C218.495 116.752 218.526 116.627 218.526 116.471V116.182C218.526 116.032 218.495 115.908 218.433 115.812C218.37 115.713 218.286 115.664 218.179 115.664C218.075 115.664 217.992 115.713 217.93 115.812C217.867 115.908 217.836 116.036 217.836 116.194V116.482ZM219.357 119.374C219.357 119.023 219.454 118.741 219.649 118.528C219.844 118.312 220.101 118.205 220.421 118.205C220.743 118.205 221.002 118.311 221.197 118.524C221.392 118.735 221.489 119.024 221.489 119.393V119.677C221.489 120.026 221.394 120.307 221.205 120.523C221.015 120.736 220.756 120.843 220.429 120.843C220.099 120.843 219.838 120.735 219.645 120.519C219.453 120.303 219.357 120.018 219.357 119.662V119.374ZM220.078 119.677C220.078 119.823 220.112 119.945 220.179 120.044C220.249 120.142 220.333 120.192 220.429 120.192C220.645 120.192 220.758 120.037 220.768 119.728V119.374C220.768 119.22 220.736 119.097 220.671 119.003C220.608 118.907 220.525 118.859 220.421 118.859C220.192 118.859 220.078 119.058 220.078 119.455V119.677ZM218.386 120.34L217.863 120.044L220.191 115.61L220.717 115.906L218.386 120.34Z" fill="#0066FF"/>
<path d="M250.789 115.033V115.968H250.727C250.313 115.97 249.984 116.095 249.74 116.342C249.498 116.586 249.352 116.929 249.3 117.37C249.536 117.1 249.832 116.965 250.188 116.965C250.599 116.965 250.927 117.141 251.171 117.491C251.418 117.842 251.541 118.31 251.541 118.894C251.541 119.265 251.471 119.601 251.331 119.899C251.19 120.198 250.993 120.431 250.738 120.597C250.486 120.76 250.2 120.842 249.88 120.842C249.366 120.842 248.953 120.636 248.641 120.223C248.331 119.81 248.177 119.254 248.177 118.555V118.146C248.177 117.52 248.274 116.972 248.469 116.502C248.667 116.031 248.95 115.67 249.319 115.418C249.691 115.164 250.124 115.035 250.617 115.033H250.789ZM249.842 117.877C249.701 117.877 249.583 117.921 249.487 118.01C249.393 118.098 249.323 118.207 249.276 118.337V118.734C249.276 119.134 249.329 119.433 249.436 119.63C249.543 119.828 249.683 119.927 249.857 119.927C250.034 119.927 250.175 119.832 250.282 119.642C250.389 119.45 250.442 119.204 250.442 118.906C250.442 118.602 250.386 118.355 250.274 118.165C250.165 117.973 250.021 117.877 249.842 117.877Z" fill="#0066FF"/>
<path d="M256.293 118.419C256.293 119.203 256.15 119.803 255.864 120.219C255.581 120.634 255.175 120.842 254.648 120.842C254.125 120.842 253.721 120.641 253.435 120.238C253.152 119.833 253.005 119.254 252.995 118.5V117.429C252.995 116.647 253.136 116.05 253.42 115.637C253.703 115.221 254.11 115.013 254.64 115.013C255.17 115.013 255.577 115.218 255.86 115.629C256.144 116.039 256.288 116.625 256.293 117.386V118.419ZM255.186 117.269C255.186 116.822 255.142 116.487 255.053 116.264C254.965 116.04 254.827 115.929 254.64 115.929C254.289 115.929 254.107 116.338 254.094 117.156V118.571C254.094 119.028 254.138 119.368 254.227 119.591C254.318 119.815 254.458 119.927 254.648 119.927C254.827 119.927 254.96 119.823 255.045 119.615C255.134 119.404 255.181 119.084 255.186 118.652V117.269Z" fill="#0066FF"/>
<path d="M257.84 116.182C257.84 115.837 257.935 115.555 258.125 115.337C258.317 115.118 258.576 115.009 258.901 115.009C259.225 115.009 259.484 115.117 259.676 115.333C259.871 115.546 259.969 115.834 259.969 116.198V116.482C259.969 116.833 259.873 117.115 259.68 117.328C259.488 117.541 259.231 117.647 258.908 117.647C258.589 117.647 258.33 117.541 258.132 117.328C257.938 117.115 257.84 116.825 257.84 116.459V116.182ZM258.557 116.482C258.557 116.638 258.59 116.763 258.655 116.856C258.722 116.947 258.807 116.993 258.908 116.993C259.012 116.993 259.094 116.944 259.154 116.848C259.216 116.752 259.248 116.626 259.248 116.47V116.182C259.248 116.031 259.216 115.908 259.154 115.812C259.092 115.713 259.007 115.664 258.901 115.664C258.797 115.664 258.713 115.713 258.651 115.812C258.589 115.908 258.557 116.035 258.557 116.194V116.482ZM260.078 119.373C260.078 119.023 260.175 118.741 260.37 118.528C260.565 118.312 260.823 118.204 261.142 118.204C261.465 118.204 261.723 118.311 261.918 118.524C262.113 118.734 262.211 119.024 262.211 119.393V119.677C262.211 120.025 262.116 120.307 261.926 120.523C261.736 120.736 261.478 120.842 261.15 120.842C260.82 120.842 260.559 120.734 260.366 120.519C260.174 120.303 260.078 120.018 260.078 119.662V119.373ZM260.799 119.677C260.799 119.823 260.833 119.945 260.901 120.043C260.971 120.142 261.054 120.192 261.15 120.192C261.366 120.192 261.479 120.037 261.489 119.728V119.373C261.489 119.22 261.457 119.097 261.392 119.003C261.329 118.907 261.246 118.859 261.142 118.859C260.914 118.859 260.799 119.058 260.799 119.455V119.677ZM259.107 120.34L258.585 120.043L260.912 115.609L261.439 115.905L259.107 120.34Z" fill="#0066FF"/>
<path fill-rule="evenodd" clip-rule="evenodd" d="M255.657 102.315C264.548 102.315 271.756 109.518 271.756 118.404C271.756 127.29 264.548 134.494 255.657 134.494C246.766 134.494 239.559 127.29 239.559 118.404C239.559 109.518 246.766 102.315 255.657 102.315ZM255.657 99.6551C266.018 99.6551 274.417 108.049 274.417 118.404C274.417 128.759 266.018 137.154 255.657 137.154C245.297 137.154 236.897 128.759 236.897 118.404C236.897 108.049 245.297 99.6551 255.657 99.6551Z" fill="white"/>
<mask id="path-27-inside-1_43_4368" fill="white">
<path d="M266.912 105.59C267.615 104.784 268.847 104.694 269.578 105.475C271.756 107.804 273.316 110.655 274.099 113.768C275.039 117.508 274.811 121.447 273.446 125.054C272.08 128.661 269.642 131.764 266.46 133.945C263.812 135.76 260.754 136.865 257.579 137.17C256.514 137.272 255.65 136.389 255.658 135.319C255.665 134.25 256.541 133.401 257.603 133.271C259.985 132.978 262.273 132.118 264.268 130.751C266.797 129.017 268.735 126.55 269.82 123.683C270.906 120.816 271.087 117.685 270.339 114.712C269.75 112.368 268.606 110.21 267.015 108.415C266.304 107.614 266.209 106.397 266.912 105.59Z"/>
</mask>
<path d="M266.912 105.59C267.615 104.784 268.847 104.694 269.578 105.475C271.756 107.804 273.316 110.655 274.099 113.768C275.039 117.508 274.811 121.447 273.446 125.054C272.08 128.661 269.642 131.764 266.46 133.945C263.812 135.76 260.754 136.865 257.579 137.17C256.514 137.272 255.65 136.389 255.658 135.319C255.665 134.25 256.541 133.401 257.603 133.271C259.985 132.978 262.273 132.118 264.268 130.751C266.797 129.017 268.735 126.55 269.82 123.683C270.906 120.816 271.087 117.685 270.339 114.712C269.75 112.368 268.606 110.21 267.015 108.415C266.304 107.614 266.209 106.397 266.912 105.59Z" stroke="#0066FF" stroke-width="30" mask="url(#path-27-inside-1_43_4368)"/>
<path fill-rule="evenodd" clip-rule="evenodd" d="M214.459 102.315C223.35 102.315 230.558 109.518 230.558 118.404C230.558 127.29 223.35 134.494 214.459 134.494C205.568 134.494 198.361 127.29 198.361 118.404C198.361 109.518 205.568 102.315 214.459 102.315ZM214.459 99.6551C224.82 99.6551 233.219 108.049 233.219 118.404C233.219 128.759 224.82 137.154 214.459 137.154C204.098 137.154 195.699 128.759 195.699 118.404C195.699 108.049 204.098 99.6551 214.459 99.6551Z" fill="white"/>
<mask id="path-29-inside-2_43_4368" fill="white">
<path d="M199.313 110.866C198.353 110.392 197.951 109.223 198.521 108.317C199.761 106.347 201.357 104.617 203.235 103.221C205.632 101.438 208.418 100.248 211.364 99.7494C214.311 99.251 217.333 99.4581 220.184 100.354C223.035 101.249 225.633 102.808 227.764 104.901C229.895 106.995 231.499 109.564 232.444 112.397C233.39 115.23 233.649 118.247 233.201 121.2C232.754 124.153 231.612 126.958 229.869 129.384C228.504 131.285 226.8 132.911 224.849 134.184C223.954 134.768 222.779 134.387 222.289 133.436C221.798 132.485 222.181 131.326 223.061 130.718C224.474 129.741 225.713 128.527 226.72 127.125C228.105 125.196 229.013 122.967 229.369 120.62C229.725 118.273 229.519 115.874 228.767 113.622C228.016 111.37 226.741 109.328 225.047 107.664C223.353 106 221.288 104.761 219.022 104.049C216.756 103.337 214.353 103.173 212.011 103.569C209.669 103.965 207.454 104.911 205.549 106.328C204.163 107.359 202.97 108.618 202.018 110.047C201.424 110.937 200.272 111.34 199.313 110.866Z"/>
</mask>
<path d="M199.313 110.866C198.353 110.392 197.951 109.223 198.521 108.317C199.761 106.347 201.357 104.617 203.235 103.221C205.632 101.438 208.418 100.248 211.364 99.7494C214.311 99.251 217.333 99.4581 220.184 100.354C223.035 101.249 225.633 102.808 227.764 104.901C229.895 106.995 231.499 109.564 232.444 112.397C233.39 115.23 233.649 118.247 233.201 121.2C232.754 124.153 231.612 126.958 229.869 129.384C228.504 131.285 226.8 132.911 224.849 134.184C223.954 134.768 222.779 134.387 222.289 133.436C221.798 132.485 222.181 131.326 223.061 130.718C224.474 129.741 225.713 128.527 226.72 127.125C228.105 125.196 229.013 122.967 229.369 120.62C229.725 118.273 229.519 115.874 228.767 113.622C228.016 111.37 226.741 109.328 225.047 107.664C223.353 106 221.288 104.761 219.022 104.049C216.756 103.337 214.353 103.173 212.011 103.569C209.669 103.965 207.454 104.911 205.549 106.328C204.163 107.359 202.97 108.618 202.018 110.047C201.424 110.937 200.272 111.34 199.313 110.866Z" stroke="#0066FF" stroke-width="30" mask="url(#path-29-inside-2_43_4368)"/>
<path d="M278.53 153.583C275.406 154.784 275.646 156.465 276.367 158.147L284.057 177.36H310.73L318.179 158.147C319.381 155.506 318.179 154.713 316.257 153.583C312.172 151.183 291.025 148.782 278.53 153.583Z" fill="#2C74F5"/>
<path d="M284.537 149.26C284.537 153.823 286.94 169.914 289.584 176.878H306.404C307.606 174.957 310.436 159.106 312.412 150.22C312.893 148.059 311.691 147.993 309.769 147.819C307.125 147.579 292.467 147.098 288.142 147.098C285.066 147.098 284.537 147.921 284.537 149.26Z" fill="#0066FF"/>
<path d="M310.73 180.481C314.815 192.969 333.318 198.733 335 225.872C335 239.044 329.682 245.921 319.381 249.364C312.027 251.821 302.134 252.53 289.824 252.53C265.073 251.089 253.539 242.683 252.578 225.872C256.182 200.655 284.057 184.804 284.057 180.481H310.73Z" fill="#0066FF" stroke="#2C74F5"/>
<path d="M335 225.872C333.318 198.733 314.815 192.97 310.729 180.481C304.001 194.41 264.352 210.982 287.661 239.801C291.74 244.844 306.885 253.363 319.38 249.364C329.682 245.921 335 239.044 335 225.872Z" fill="#2C74F5"/>
<path fill-rule="evenodd" clip-rule="evenodd" d="M295.007 202.801C295.007 201.881 294.27 201.135 293.36 201.135C292.449 201.135 291.712 201.881 291.712 202.801V206.895C290.256 207.254 289.008 208.057 288.092 209.124C286.751 210.686 286.1 212.85 286.607 215C287.123 217.189 288.769 219.087 291.484 220.261C291.561 220.294 291.637 220.327 291.712 220.361V226.698C290.872 226.177 289.985 225.443 289.09 224.44C288.481 223.757 287.439 223.703 286.763 224.319C286.088 224.935 286.034 225.989 286.644 226.672C288.273 228.499 290.009 229.728 291.712 230.424V235.013C291.712 235.933 292.449 236.679 293.36 236.679C294.27 236.679 295.007 235.933 295.007 235.013V231.124C296.92 231.144 298.666 230.452 299.789 229.104C301.187 227.426 301.314 225.098 300.098 222.914C299.173 221.254 297.492 219.672 295.007 218.289V210.304C296.105 210.688 297.377 211.504 298.727 213.017C299.337 213.7 300.379 213.754 301.055 213.138C301.73 212.521 301.784 211.468 301.174 210.785C299.184 208.556 297.069 207.283 295.007 206.854V202.801ZM291.712 210.421C291.269 210.645 290.888 210.95 290.581 211.308C289.865 212.142 289.576 213.225 289.813 214.227C289.993 214.991 290.522 215.88 291.712 216.637V210.421ZM295.007 222.218V227.793C296.137 227.816 296.896 227.404 297.268 226.957C297.647 226.502 297.875 225.715 297.226 224.549C296.841 223.857 296.142 223.051 295.007 222.218Z" fill="white"/>
<path d="M310.009 177.119C305.203 176.4 291.987 176.164 284.297 177.119C281.654 177.448 281.894 181.683 284.297 181.923C290.305 182.644 304.002 182.644 310.009 181.683C312.868 181.226 313.133 177.587 310.009 177.119Z" fill="white"/>
<path d="M257.801 240.723C248.173 249.786 234.318 250.716 226.855 242.798C219.392 234.879 220.944 221.39 230.572 212.326C243.093 200.538 254.257 202.055 261.721 209.973C269.184 217.891 267.429 231.658 257.801 240.723Z" fill="#FFC234"/>
<path d="M255.146 240.047C245.518 249.11 231.663 250.04 224.2 242.122C216.737 234.203 218.492 220.436 228.12 211.372C237.749 202.308 251.602 201.379 259.066 209.297C266.529 217.215 264.774 230.982 255.146 240.047Z" fill="#FFCE5B"/>
<path d="M253.456 209.589L225.712 237.141L229.511 241.116L257.079 213.121L253.456 209.589Z" fill="#FFC234"/>
<path d="M251.159 209.06L224.563 235.199C219.615 228.841 228.539 215.859 231.278 213.828C239.337 206.057 247.89 207.411 251.159 209.06Z" fill="#FFC234"/>
<path fill-rule="evenodd" clip-rule="evenodd" d="M227.834 238.7C233.314 244.514 244.109 244.238 252.05 236.762C259.991 229.286 260.912 218.532 255.432 212.718C249.951 206.903 239.156 207.18 231.216 214.656C223.275 222.132 222.354 232.886 227.834 238.7ZM226.162 240.274C232.785 247.301 245.082 246.477 253.626 238.433C262.17 230.389 263.728 218.171 257.104 211.143C250.481 204.116 238.185 204.94 229.641 212.985C221.096 221.029 219.539 233.247 226.162 240.274Z" fill="#FFE7AD"/>
<path fill-rule="evenodd" clip-rule="evenodd" d="M248.897 212.324L247.837 211.718C247.727 211.655 247.589 211.698 247.529 211.812L246.788 213.235C243.853 211.991 240.653 212.442 238.694 214.709C235.29 218.648 239.21 224.284 239.992 225.022C240.143 225.172 240.287 225.32 240.424 225.466L237.378 231.319C236.175 230.263 235.114 228.705 234.401 227.43C234.28 227.215 234.016 227.133 233.8 227.247L231.569 228.417C231.357 228.528 231.265 228.789 231.367 229.008C232.813 232.111 234.849 233.795 235.735 234.477L234.002 237.809C233.944 237.92 233.985 238.058 234.093 238.117L235.257 238.749C235.366 238.809 235.504 238.766 235.562 238.653L237.234 235.411C244.871 239.143 250.267 229.679 244.97 224.484C244.449 223.972 243.999 223.492 243.613 223.042L246.558 217.331C247.688 218.283 248.717 219.629 249.417 220.742C249.546 220.947 249.807 221.018 250.017 220.9C250.717 220.507 251.706 219.941 252.248 219.602C252.426 219.491 252.493 219.264 252.408 219.069C251.433 216.804 249.944 215.113 248.266 214.022L248.984 212.629C249.04 212.519 249.003 212.384 248.897 212.324ZM242.028 217.136C242.948 215.992 244.047 215.916 245.14 216.404L242.471 221.531C240.87 219.043 241.538 217.746 242.028 217.136ZM238.847 232.282L241.612 226.924C243.325 229.435 242.578 230.972 242.056 231.523C241.018 232.625 239.91 232.73 238.847 232.282Z" fill="white"/>
<path d="M10.4348 3.98993C4.67181 3.98993 0 8.65908 0 14.4188C0 20.1785 4.67181 24.8476 10.4348 24.8476H34.4419C36.0127 24.8476 37.5024 24.5007 38.8386 23.8794L44.8764 27.5185L42.1211 21.4798C43.8319 19.6223 44.8767 17.1425 44.8767 14.4188C44.8767 8.65908 40.2049 3.98993 34.4419 3.98993H10.4348Z" fill="white"/>
<path d="M16.764 14.4183C16.764 15.6826 15.7248 16.7075 14.4428 16.7075C13.1608 16.7075 12.1216 15.6826 12.1216 14.4183C12.1216 13.154 13.1608 12.129 14.4428 12.129C15.7248 12.129 16.764 13.154 16.764 14.4183Z" fill="#1E1E2D"/>
<path d="M24.7595 14.4183C24.7595 15.6826 23.7202 16.7075 22.4383 16.7075C21.1563 16.7075 20.117 15.6826 20.117 14.4183C20.117 13.154 21.1563 12.129 22.4383 12.129C23.7202 12.129 24.7595 13.154 24.7595 14.4183Z" fill="#1E1E2D"/>
<path d="M30.4337 16.7075C31.7157 16.7075 32.7549 15.6826 32.7549 14.4183C32.7549 13.154 31.7157 12.129 30.4337 12.129C29.1517 12.129 28.1125 13.154 28.1125 14.4183C28.1125 15.6826 29.1517 16.7075 30.4337 16.7075Z" fill="#1E1E2D"/>
<path d="M79.9487 245.753L79.0005 236.27H69.6976L72.8367 245.753H79.9487Z" fill="#FEBFAE"/>
<path d="M22.104 238.172L31.3497 228.694L22.104 222.533L16.6514 235.091L22.104 238.172Z" fill="#FEBFAE"/>
<path d="M70.7203 250.056C70.8246 251.238 71.71 251.405 72.1397 251.341C73.6518 251.417 75.5449 251.487 77.5933 251.528C84.4393 251.666 93.0202 251.477 94.9155 250.101C95.2604 249.851 95.3428 249.549 95.2136 249.21C94.8585 248.278 92.9048 247.062 90.4101 245.851C87.3326 244.357 83.4318 242.87 80.6929 241.931C80.2689 241.756 79.4505 241.559 79.5685 242.168C79.6189 242.812 79.4236 243.343 79.0689 243.765C77.7719 245.308 74.3441 245.387 73.0154 244.184C71.8799 243.156 71.3839 243.683 71.2779 244.075C71.0486 245.576 70.6161 248.873 70.7203 250.056Z" fill="#1E1E2D"/>
<path d="M70.7209 250.056C70.8252 251.238 71.7106 251.405 72.1403 251.341C73.6524 251.417 75.5455 251.487 77.5939 251.528C84.4399 251.665 93.0208 251.477 94.9161 250.101C95.261 249.851 95.3434 249.549 95.2142 249.21C92.9681 251.195 77.9495 250.601 70.7209 250.056Z" fill="#C4C4C4"/>
<path d="M70.7209 250.056C70.8252 251.238 71.7106 251.405 72.1403 251.341C73.6524 251.417 75.5455 251.487 77.5939 251.528C84.4399 251.665 93.0208 251.477 94.9161 250.101C95.261 249.851 95.3434 249.549 95.2142 249.21C92.9681 251.195 77.9495 250.601 70.7209 250.056Z" fill="#0C1229"/>
<path d="M70.7209 250.056C70.8252 251.238 71.7106 251.405 72.1403 251.341C73.6524 251.417 75.5455 251.487 77.5939 251.528C84.4399 251.665 93.0208 251.477 94.9161 250.101C95.261 249.851 95.3434 249.549 95.2142 249.21C92.9681 251.195 77.9495 250.601 70.7209 250.056Z" fill="#0066FF"/>
<path d="M14.7578 235.843C14.2629 236.921 14.9494 237.505 15.3545 237.661C16.6306 238.476 18.2407 239.473 20.0002 240.522C25.8806 244.029 33.4299 248.11 35.758 247.853C36.1816 247.806 36.4026 247.584 36.4584 247.226C36.6116 246.24 35.5161 244.217 33.9483 241.931C32.0143 239.11 29.3614 235.888 27.4472 233.717C27.1653 233.355 26.5518 232.779 26.3528 233.366C26.0774 233.951 25.6445 234.316 25.1274 234.507C23.2363 235.206 20.2188 233.579 19.6602 231.876C19.1829 230.421 18.4908 230.634 18.2044 230.922C17.2618 232.113 15.2528 234.764 14.7578 235.843Z" fill="#1E1E2D"/>
<path d="M14.758 235.842C14.263 236.921 14.9495 237.504 15.3547 237.661C16.6308 238.475 18.2409 239.473 20.0004 240.522C25.8807 244.028 33.43 248.11 35.7581 247.852C36.1818 247.805 36.4028 247.584 36.4585 247.225C33.5239 247.838 20.7688 239.892 14.758 235.842Z" fill="#C4C4C4"/>
<path d="M14.758 235.842C14.263 236.921 14.9495 237.504 15.3547 237.661C16.6308 238.475 18.2409 239.473 20.0004 240.522C25.8807 244.028 33.43 248.11 35.7581 247.852C36.1818 247.805 36.4028 247.584 36.4585 247.225C33.5239 247.838 20.7688 239.892 14.758 235.842Z" fill="#0C1229"/>
<path d="M14.758 235.842C14.263 236.921 14.9495 237.504 15.3547 237.661C16.6308 238.475 18.2409 239.473 20.0004 240.522C25.8807 244.028 33.43 248.11 35.7581 247.852C36.1818 247.805 36.4028 247.584 36.4585 247.225C33.5239 247.838 20.7688 239.892 14.758 235.842Z" fill="#0066FF"/>
<path d="M37.3718 192.474C39.238 189.276 39.4973 156.3 48.1814 144.109C58.6998 142.32 65.1018 154.803 64.302 160.931C63.5022 167.06 55.1038 195.41 53.1598 198.13L31.3496 230.826L20.7094 223.948C25.4859 214.789 35.5056 195.671 37.3718 192.474Z" fill="#232533"/>
<path d="M31.3496 230.826L20.7094 223.948C21.9875 221.497 23.6409 218.333 25.4132 214.952C33.5606 217.795 43.5745 205.712 48.8926 197.182C54.2107 188.653 48.1814 169.224 43.0112 156.667C44.2968 151.687 45.9646 147.221 48.1814 144.109C58.6998 142.32 65.1018 154.803 64.302 160.931C63.5022 167.06 55.1038 195.41 53.1598 198.13L31.3496 230.826Z" fill="#1E1E2D"/>
<path d="M55.0567 125.03C59.2175 125.03 70.6969 125.03 70.6969 125.03L80.2075 236.513H69.0437C63.5451 207.426 48.655 162.794 46.5222 154.534C43.035 141.029 50.8958 125.03 55.0567 125.03Z" fill="#232533"/>
<path d="M30.6385 170.645C30.6385 170.645 77.5779 169.46 78.5262 161.641C79.4745 153.823 70.6115 120.641 73.8824 108.568C74.0549 107.932 74.2585 107.365 74.4961 106.877C78.6387 99.2162 71.4142 91.9827 71.4142 91.9827C71.4142 91.9827 68.5694 88.9026 67.147 86.0594C66.1409 84.0485 64.5993 81.8555 62.4056 81.0841C65.4875 86.5336 61.2203 87.4813 54.3453 81.321C50.3936 82.9312 44.7242 88.536 46.1136 93.2593C46.6945 97.9483 46.9903 102.494 47.0537 106.877C47.0619 107.443 47.0662 108.007 47.0667 108.568C47.1026 145.685 30.6385 170.645 30.6385 170.645Z" fill="#0066FF"/>
<path opacity="0.4" d="M30.6385 170.645C30.6385 170.645 77.5779 169.46 78.5262 161.641C79.1923 156.15 75.0181 138.146 73.6079 123.732C71.4142 163.3 46.285 162.352 36.7309 158.798C33.4409 166.396 30.6385 170.645 30.6385 170.645Z" fill="#98AEFF"/>
<path opacity="0.7" d="M47.0537 106.876C51.2634 110.464 69.0435 113.07 74.4961 106.876C74.2586 107.365 74.0549 107.931 73.8824 108.568C68.0952 114.018 53.397 111.885 47.0668 108.568C47.0662 108.007 47.0619 107.443 47.0537 106.876Z" fill="#0066FF"/>
<path d="M71.4142 91.9827C71.4142 91.9827 68.5694 88.9026 67.147 86.0594C66.1409 84.0485 64.5993 81.8555 62.4056 81.0841C65.2504 86.5336 61.6944 87.4813 54.3453 81.321C50.3936 82.9312 44.7242 88.536 46.1136 93.2593C46.6945 97.9483 46.9903 102.494 47.0537 106.877C51.2634 110.464 69.0435 113.07 74.4961 106.877C78.6387 99.2162 71.4142 91.9827 71.4142 91.9827Z" fill="#2C74F5"/>
<path d="M54.3453 81.321C61.6944 87.4812 65.2504 86.5335 62.4056 81.084C62.7209 81.1949 63.0228 81.3352 63.3115 81.5001C63.1231 81.3879 68.0001 85.5001 63.5001 87.0001C59.1001 88.2001 54.6667 83.9903 53 81.9854C53.4613 81.7205 53.9136 81.4969 54.3453 81.321Z" fill="#2671E1"/>
<path fill-rule="evenodd" clip-rule="evenodd" d="M84.8891 122.911C84.7842 122.35 85.1546 121.81 85.7163 121.705L141.956 111.21C142.518 111.105 143.058 111.475 143.163 112.037C143.268 112.598 142.898 113.138 142.336 113.243L86.0961 123.738C85.5344 123.843 84.994 123.473 84.8891 122.911Z" fill="#45154F"/>
<path d="M83.039 118.98C79.4358 118.777 76.6014 117.24 75.6346 116.498L72.2109 122.095C73.8702 122.257 78.0029 123.291 81.2591 126.137C84.5154 128.983 88.4297 127.413 89.9798 126.273C91.4749 125.126 88.6746 123.415 87.0876 122.703C86.7704 122.56 86.5124 121.451 87.5698 121.59C89.2706 121.948 89.7013 121.142 89.7041 120.694C88.9837 120.208 86.6422 119.184 83.039 118.98Z" fill="#FEBFAE"/>
<path d="M49.93 108.68L46.0352 92.2928C48.8926 108.332 47.2331 111.175 54.1081 114.966L73.5476 124.206L73.5476 123.06C68.0783 120.245 58.4412 115.278 55.1673 113.567C51.6138 111.709 50.1951 109.535 49.93 108.68Z" fill="#0066FF"/>
<path d="M49.9304 108.68L46.0356 92.2929C46.7594 82.0324 56.694 85.3493 58.1387 91.7459C59.102 96.0112 59.4703 100.405 60.0352 103.119C60.6001 105.833 62.0826 106.852 62.6429 107.147L77.8153 117.335L75.6817 124.206C70.6011 121.592 58.7211 115.424 55.1677 113.567C51.6143 111.71 50.1956 109.535 49.9304 108.68Z" fill="#518FFF"/>
<path d="M70.0001 121.271L73.5935 114.5L74.3381 115L70.8558 121.714L70.0001 121.271Z" fill="#0066FF"/>
<path d="M65.9999 119.199L70.229 112.241L72.2039 113.567L68.1732 120.325C67.4556 119.953 66.7275 119.576 65.9999 119.199Z" fill="#0066FF"/>
<path d="M75.827 116L72.4999 122.565C73.0257 122.837 73.5279 123.096 73.9999 123.34L76.9999 116.788L75.827 116Z" fill="#0066FF"/>
<path d="M62.4054 81.0849L62.2962 74.8269L54.4647 73.4947L54.345 81.3218C56.2184 83.0704 58.384 84.877 61.3166 85.6764C64.2491 86.4757 63.9369 83.2432 62.4054 81.0849Z" fill="#FEBFAE"/>
<path d="M56.9563 73.9185L62.2963 74.8269L62.3784 79.5337L56.9563 73.9185Z" fill="#E99D89"/>
<path d="M64.1024 75.825C60.746 76.6257 54.8193 76.1082 52.6856 72.5538C52.4501 72.1614 51.8816 70.5742 51.5003 70.4218C49.1296 69.4741 46.178 65.4802 47.9817 63.978C49.5583 62.665 56.0928 60.0911 65.0507 57.1073C66.3836 57.7734 68.3322 60.7075 68.5692 62.6029C68.9841 65.9201 69.3179 74.5808 64.1024 75.825Z" fill="#FEBFAE"/>
<path d="M61.6991 50.0907C62.921 50.2017 65.8978 51.1898 68.0306 54.2539C69.9013 56.9415 69.1741 60.0818 68.3674 61.7869C67.9605 60.6376 66.7201 58.102 65.0132 57.1543C63.3537 61.1822 57.6641 63.3146 54.5822 64.2623C53.1598 64.9731 55.2934 69.9487 53.871 69.7118C53.5966 68.0532 51.5952 63.1724 49.1297 63.5515C47.2331 64.0254 46.759 67.5794 51.7374 70.4226C52.2115 70.8964 52.2115 71.6072 52.8816 72.6085C50.3712 73.9869 47.289 65.2983 46.2848 66.1578C45.1776 67.1055 44.1702 70.4073 44.7034 74.404C45.2366 78.4007 41.8153 81.2872 40.038 82.2309C38.1496 82.7859 34.8393 83.4632 36.7055 81.7313C39.6469 76.8198 38.6118 73.2658 35.8724 69.4748C35.1503 68.4756 33.7396 65.3781 35.8724 61.2481C38.0052 57.1182 42.6484 57.0849 44.7034 57.5845C45.4255 57.9175 46.5258 58.339 47.7027 56.2522C51.7374 49.0986 58.1445 49.369 61.6991 50.0907Z" fill="#232533"/>
<path d="M44.863 57.6285L47.2336 57.1546V66.8689L45.8112 66.6319L44.863 57.6285Z" fill="#04050D"/>
</svg>
